<svg xmlns="http://www.w3.org/2000/svg" viewBox="0 0 100 100"><defs><style>.cls-1{fill:#648EEF}.cls-3{fill:#ffb229}.cls-4{fill:#1F408C}.cls-7{fill:#B8CBF8}</style></defs><g id="seleccionados_expandidos" data-name="seleccionados expandidos"><path class="cls-1" d="M94.17 0a21.77 21.77 0 0 1-3 5.26C90.47 6.89 85 21 88.3 47.53c3.56 29-10 39.56-23 43.22 0 0 0 .08-.05.12a16.43 16.43 0 0 0-1.9 9.13H100V0z"/><path d="M16 85.39a1.5 1.5 0 1 1 1.92-2.3C27 90.64 50 91.25 62.59 88.36 74.88 85.53 88.8 76.21 85.32 47.9c-2.34-19-.38-31.73 1.34-38.44l-.19.13a11.66 11.66 0 0 1-6.15 1.85 10.62 10.62 0 0 1-3.22-.51 1.48 1.48 0 0 1-.59-.36 2.71 2.71 0 0 1-1.64-3.87c.81-1.66 3-4.12 4.51-6.7h-.28C73.93 6.72 66 11.72 57.18 9.21c-3.8-1.08-1.18-3.58-.43-4a32.61 32.61 0 0 0 8-5.25h-4.34c-3 2.16-6 4.35-8.91 6.38-5.81 4-16.67 7-23 .26-1.76-1.89.4-3.44 1.11-3.51A36.11 36.11 0 0 0 40.7 0H27.44c-3.62 2-7.57 4.2-9.87 7.36a1.47 1.47 0 0 1-1.63.55c-.18.18-.37.34-.55.52A62.21 62.21 0 0 0 0 36.35V100h24.87Q22 93.71 19 87.46a20.6 20.6 0 0 1-3-2.07z" fill="#FFD774"/><path class="cls-3" d="M61.62 91.63A81.75 81.75 0 0 1 46.45 93C36.56 93 26 91.39 19 87.46q3 6.25 5.85 12.54h35.5a19.68 19.68 0 0 1 1.27-8.37z"/><path class="cls-1" d="M28.51 6.64c6.32 6.76 17.18 3.71 23-.26 3-2 6-4.21 8.91-6.37h-4.1C52 4.46 45.51 9.33 38 9.33a17.9 17.9 0 0 1-5.89-1 1.5 1.5 0 1 1 1-2.83C40.41 8 47.15 4.29 52 0H40.7a36.11 36.11 0 0 1-11.07 3.13c-.72.06-2.88 1.62-1.12 3.51zM15.94 7.9a1.48 1.48 0 0 1-.47-.22 1.5 1.5 0 0 1-.33-2.1A23 23 0 0 1 21.46 0H8.76a43.68 43.68 0 0 0-4.32 9.93 1.5 1.5 0 0 1-2.88-.85A47.42 47.42 0 0 1 5.3 0H0v36.35A62.21 62.21 0 0 1 15.39 8.43c.18-.18.37-.35.55-.53zM57.18 9.21C66 11.72 73.93 6.72 79.1 0h-1.55a18.52 18.52 0 0 1-6 6 15.72 15.72 0 0 1-8.2 2.64 9.83 9.83 0 0 1-2.22-.24 1.5 1.5 0 0 1 .68-2.92c2.31.54 5.27-.2 8.14-2A16.59 16.59 0 0 0 73.93 0h-9.18a32.61 32.61 0 0 1-8 5.25c-.75.37-3.37 2.88.43 3.96zM76.51 10.57A1.5 1.5 0 0 1 78 8.07a8.05 8.05 0 0 0 6.89-1 14.72 14.72 0 0 0 3.72-3.39 1.48 1.48 0 0 1 .17-.21A19.16 19.16 0 0 0 90.89 0h-11.5c-1.56 2.59-3.7 5-4.51 6.7a2.71 2.71 0 0 0 1.63 3.87z"/><ellipse class="cls-4" cx="39.4" cy="25.07" rx="2.08" ry="2.64"/><ellipse class="cls-4" cx="73.35" cy="25.43" rx="2.08" ry="2.64"/><path d="M58.64 67.25a1.58 1.58 0 0 0 1.51-1.62 1.61 1.61 0 0 0-1.5-1.63c-7.38 0-10.77-1.76-12.08-6.59a1.46 1.46 0 0 0-1.84-1 1.53 1.53 0 0 0-1.05 1.87c2.13 7.88 8.76 8.97 14.96 8.97z" fill="#B5B6E2"/><path d="M57.65 52.35a8.15 8.15 0 0 1 2.83.25 7.14 7.14 0 0 0 1.42.15 5.07 5.07 0 0 0 4.33-2.19c1.49-2.16 1.33-5.31-.4-8-.36-.57-.77-1.14-1.19-1.72-1.47-2.06-2.86-4-2.41-6.3a1.5 1.5 0 0 0-2.95-.57c-.69 3.57 1.31 6.37 2.91 8.62.38.54.76 1.06 1.09 1.59 1.23 1.95 1.12 3.78.46 4.74a2.48 2.48 0 0 1-2.68.81c-2.37-.48-4-.46-4.85.05a1.5 1.5 0 0 0 1.42 2.63z" fill="#6569BD"/><path class="cls-7" d="M2.57 10.94a1.5 1.5 0 0 0 1.87-1A43.68 43.68 0 0 1 8.76 0H5.3a47.42 47.42 0 0 0-3.74 9.07 1.5 1.5 0 0 0 1.01 1.87zM15.15 5.58a1.5 1.5 0 0 0 .33 2.1 1.48 1.48 0 0 0 .47.22 1.47 1.47 0 0 0 1.63-.55C19.87 4.2 23.82 2 27.44 0h-6a23 23 0 0 0-6.29 5.58zM33 5.49a1.5 1.5 0 1 0-1 2.83 17.9 17.9 0 0 0 5.89 1c7.56 0 14-4.87 18.36-9.33H52C47.15 4.29 40.41 8 33 5.49zM70 3.44c-2.86 1.81-5.83 2.54-8.14 2a1.5 1.5 0 0 0-.68 2.92 9.83 9.83 0 0 0 2.22.24A15.72 15.72 0 0 0 71.59 6a18.52 18.52 0 0 0 6-6h-3.66A16.59 16.59 0 0 1 70 3.44z"/><path class="cls-3" d="M88.61 3.65l.17-.21a1.48 1.48 0 0 0-.17.21zM65.27 90.87s0-.08.05-.12c12.93-3.66 26.54-14.23 23-43.22C85 21 90.47 6.89 91.15 5.26a18.3 18.3 0 0 1-4.49 4.2C84.94 16.17 83 28.9 85.32 47.9c3.48 28.31-10.44 37.63-22.73 40.46C50 91.25 27 90.64 17.91 83.09a1.5 1.5 0 1 0-1.91 2.3 20.6 20.6 0 0 0 3 2.07C26 91.39 36.56 93 46.45 93a81.75 81.75 0 0 0 15.17-1.33 19.68 19.68 0 0 0-1.27 8.33h3a16.43 16.43 0 0 1 1.92-9.13z"/><path class="cls-7" d="M88.61 3.65A14.72 14.72 0 0 1 84.89 7 8.05 8.05 0 0 1 78 8a1.5 1.5 0 0 0-.91 2.86 10.62 10.62 0 0 0 3.22.51 11.66 11.66 0 0 0 6.15-1.85l.19-.13a18.3 18.3 0 0 0 4.49-4.2 21.77 21.77 0 0 0 3-5.26h-3.25a19.16 19.16 0 0 1-2.1 3.43z"/></g><path d="M-32.1-7.92c11.13.18 22.26.41 33.39.54a4.74 4.74 0 0 0 4.53-6c-1.23-3.77-4.42-7.47-8.74-5.73a3.94 3.94 0 0 0-2.35 2.4q-20.29.34-40.59.81c-4.41.1-13.18-1.58-15.66 3.21-1.09 2.1-.14 4.46 2.5 4.25a1.48 1.48 0 0 0 .7-.25c-2 14.88-1.84 30.29-2.15 45.24q-.53 24.86-.43 49.67v6.11a55 55 0 0 0-5.6 0c-3.85 0-7.69 0-11.54.27a3.38 3.38 0 0 0 0 6.76c3.85.22 7.69.23 11.54.27a53.45 53.45 0 0 0 5.66 0q.44 43.39 2.29 86.75.59 14.38 1.32 28.75.35 6.94.73 13.88c.25 4.61 0 9.65 1.67 14a4.63 4.63 0 0 0 2.08 2.36 9 9 0 0 0-3 .89c-1.86.93-1.83 3.41-.62 4.79 2.94 3.34 8.16 3.13 12.36 3.63a149.19 149.19 0 0 0 16.88 1c9.5 0 21.33-.09 29.88-4.7 1.2-.65 1.06-2.88-.41-3.11-9.53-1.49-19.82.31-29.48 0a149.32 149.32 0 0 1-15.4-1.25c-2-.28-4.09-.82-6.11-1.13a3.82 3.82 0 0 0 1.91-2.49c1.92-7.4.05-16.32-.34-23.9q-.65-12.39-1.19-24.78-1.09-24.79-1.79-49.59c-.94-33.4-1.35-66.82-1.66-100.23-.16-17.46.76-35.4-.87-52.83 1.24 0 2.5 0 3.79.07q8.35.19 16.7.34z" fill="#142A5E" id="señales"/></svg>